HIERARCHY
ROOT Pelvis
{
	OFFSET -0.217368 -24.078917 2.858379
	CHANNELS 6 Xposition Yposition Zposition Zrotation Yrotation Xrotation 
	JOINT Left_hip
	{
		OFFSET 5.858135 -8.228005 -1.766408
		CHANNELS 3 Zrotation Yrotation Xrotation
		JOINT Left_knee
		{
			OFFSET 4.345143 -38.646942 0.803700
			CHANNELS 3 Zrotation Yrotation Xrotation
			JOINT Left_ankle
			{
				OFFSET -1.479033 -42.687447 -3.742800
				CHANNELS 3 Zrotation Yrotation Xrotation
				JOINT Left_foot
				{
					OFFSET 4.105436 -6.028605 12.204244
					CHANNELS 3 Zrotation Yrotation Xrotation
					End Site
					{
						OFFSET 0.000000 0.000000 0.000000
					}
				}
			}
		}
	}
	JOINT Right_hip
	{
		OFFSET -6.030973 -9.051328 -1.354253
		CHANNELS 3 Zrotation Yrotation Xrotation
		JOINT Right_knee
		{
			OFFSET -4.325663 -38.368790 -0.484304
			CHANNELS 3 Zrotation Yrotation Xrotation
			JOINT Right_ankle
			{
				OFFSET 1.905555 -42.004566 -3.456167
				CHANNELS 3 Zrotation Yrotation Xrotation
				JOINT Right_foot
				{
					OFFSET -3.483987 -6.210554 13.032330
					CHANNELS 3 Zrotation Yrotation Xrotation
					End Site
					{
						OFFSET 0.000000 0.000000 0.000000
					}
				}
			}
		}
	}
	JOINT Spine1
	{
		OFFSET 0.443945 12.440353 -3.838522
		CHANNELS 3 Zrotation Yrotation Xrotation
		JOINT Spine2
		{
			OFFSET 0.448844 13.795640 2.682033
			CHANNELS 3 Zrotation Yrotation Xrotation
			JOINT Spine3
			{
				OFFSET -0.226460 5.603239 0.285504
				CHANNELS 3 Zrotation Yrotation Xrotation
				JOINT Neck
				{
					OFFSET -1.339018 21.163553 -3.346758
					CHANNELS 3 Zrotation Yrotation Xrotation
					JOINT Head
					{
						OFFSET 1.011321 8.893734 5.040987
						CHANNELS 3 Zrotation Yrotation Xrotation
						End Site
						{
							OFFSET 0.000000 0.000000 0.000000
						}
					}
				}
				JOINT Left_collar
				{
					OFFSET 7.170247 11.399971 -1.889817
					CHANNELS 3 Zrotation Yrotation Xrotation
					JOINT Left_shoulder
					{
						OFFSET 12.292140 4.520507 -1.904600
						CHANNELS 3 Zrotation Yrotation Xrotation
						JOINT Left_elbow
						{
							OFFSET 25.533188 -1.564902 -2.294648
							CHANNELS 3 Zrotation Yrotation Xrotation
							JOINT Left_wrist
							{
								OFFSET 26.570929 1.269810 -0.737473
								CHANNELS 3 Zrotation Yrotation Xrotation
								JOINT Left_palm
								{
									OFFSET 8.669054 -1.063602 -1.559429
									CHANNELS 3 Zrotation Yrotation Xrotation
									End Site
									{
										OFFSET 0.000000 0.000000 0.000000
									}
								}
							}
						}
					}
				}
				JOINT Right_collar
				{
					OFFSET -8.295364 11.247234 -2.370738
					CHANNELS 3 Zrotation Yrotation Xrotation
					JOINT Right_shoulder
					{
						OFFSET -11.322830 4.685326 -0.847207
						CHANNELS 3 Zrotation Yrotation Xrotation
						JOINT Right_elbow
						{
							OFFSET -26.012751 -1.436928 -3.126872
							CHANNELS 3 Zrotation Yrotation Xrotation
							JOINT Right_wrist
							{
								OFFSET -26.910841 0.679372 -0.602677
								CHANNELS 3 Zrotation Yrotation Xrotation
								JOINT Right_palm
								{
									OFFSET -8.875370 -0.865157 -1.010708
									CHANNELS 3 Zrotation Yrotation Xrotation
									End Site
									{
										OFFSET 0.000000 0.000000 0.000000
									}
								}
							}
						}
					}
				}
			}
		}
	}
}
MOTION
Frames: 11
Frame Time: 0.016667
-0.217368 71.542671 2.858379 0.081335 16.069751 3.534461 2.856782 -0.338875 -4.593339 -2.635127 0.263225 2.376555 1.499929 6.513496 9.887221 0.000000 0.000000 0.000000 -1.282088 0.535355 -5.694558 -0.378253 0.225406 4.288538 -2.098604 -7.848614 7.645836 0.000000 0.000000 0.000000 1.738861 -0.078724 1.155076 1.941043 -0.713585 -4.529637 -6.704454 3.477181 4.425519 6.758627 -4.879582 -2.784089 0.000000 0.000000 0.000000 -19.596493 -8.250637 2.418693 -48.069729 -5.804413 -3.057606 -12.338558 -19.704698 2.823082 0.000000 0.000000 0.000000 0.000000 0.000000 0.000000 23.957998 4.352387 0.105931 48.855142 3.073190 -3.087958 13.422838 21.002898 2.874178 0.000000 0.000000 0.000000 0.000000 0.000000 0.000000 
-0.263211 71.555832 2.802670 -0.034430 17.230929 3.356781 2.378425 -0.399599 -5.261695 -1.655120 0.125851 2.847081 2.138728 7.737442 10.441622 0.000000 0.000000 0.000000 -1.004378 0.452570 -4.705478 0.516880 0.072096 3.604935 -1.756620 -7.001834 7.194675 0.000000 0.000000 0.000000 1.579066 -0.057564 0.820382 2.642335 -1.085272 -3.293091 -7.341188 3.835685 4.184479 7.337763 -5.207556 -3.413772 0.000000 0.000000 0.000000 -20.073893 -8.436975 2.512040 -46.908405 -5.873325 -2.958152 -11.833822 -19.327867 2.681613 0.000000 0.000000 0.000000 0.000000 0.000000 0.000000 24.661477 4.439548 0.113693 47.290013 3.965442 -2.649554 14.013446 20.685698 2.922397 0.000000 0.000000 0.000000 0.000000 0.000000 0.000000 
-0.260690 71.495613 2.737832 -0.111665 16.707253 3.049546 2.519164 -0.486610 -6.585062 -1.510828 0.047866 5.631105 2.072886 7.383760 9.518380 0.000000 0.000000 0.000000 -0.281453 0.469373 -4.742845 0.183548 0.164870 4.822340 -2.035156 -7.473609 6.807528 0.000000 0.000000 0.000000 1.009211 -0.073363 1.315794 2.982971 -1.245892 -3.145823 -6.493175 3.906998 5.163774 7.179696 -4.902781 -4.488360 0.000000 0.000000 0.000000 -21.676223 -9.320892 2.988713 -46.196840 -5.856558 -2.920072 -10.984134 -20.942746 2.759700 0.000000 0.000000 0.000000 0.000000 0.000000 0.000000 25.439990 5.562587 0.756614 46.893421 5.039132 -2.226975 12.654937 21.198346 2.774471 0.000000 0.000000 0.000000 0.000000 0.000000 0.000000 
-0.191130 71.515709 2.669505 -0.285063 17.696650 2.924444 2.988756 -0.526983 -7.532441 -2.141802 0.119070 7.542486 2.461231 7.956601 9.181589 0.000000 0.000000 0.000000 -0.041342 0.537033 -5.376647 0.578553 0.142766 5.873120 -1.825227 -7.106924 7.064843 0.000000 0.000000 0.000000 1.090713 -0.074804 1.312592 3.399283 -1.502319 -2.044259 -6.972666 3.779596 4.546237 7.329372 -5.023023 -4.430532 0.000000 0.000000 0.000000 -21.356475 -9.985144 3.370392 -45.501425 -6.297787 -2.716798 -11.821110 -20.094642 2.790309 0.000000 0.000000 0.000000 0.000000 0.000000 0.000000 25.234114 6.324008 1.235647 45.711888 5.452417 -2.023578 14.716911 21.101794 3.108012 0.000000 0.000000 0.000000 0.000000 0.000000 0.000000 
-0.005435 71.479378 2.471827 -0.523795 16.917893 2.861020 3.905707 -0.578937 -9.303314 -3.296357 0.310062 10.105459 2.702029 8.449000 9.514075 0.000000 0.000000 0.000000 -0.038037 0.630390 -6.311384 0.540918 0.197816 7.258906 -1.662616 -6.687491 6.820453 0.000000 0.000000 0.000000 1.051201 -0.098794 1.808964 3.290910 -1.415016 -2.644041 -6.435899 3.495367 5.529162 7.314391 -4.949058 -4.793074 0.000000 0.000000 0.000000 -21.482511 -10.100160 3.436180 -45.797779 -5.900082 -2.879354 -10.959067 -19.960163 2.620515 0.000000 0.000000 0.000000 0.000000 0.000000 0.000000 25.420989 6.368192 1.255302 45.264005 6.223202 -1.729359 15.136278 21.084911 3.176099 0.000000 0.000000 0.000000 0.000000 0.000000 0.000000 
0.314579 71.505302 2.200098 -0.769098 15.416895 2.726139 4.337647 -0.639264 -10.987841 -3.356527 0.308705 12.977750 3.104136 8.902120 8.554193 0.000000 0.000000 0.000000 -0.352176 0.678054 -6.907229 1.190876 0.122131 8.447376 -2.055579 -7.580629 7.025483 0.000000 0.000000 0.000000 0.722413 -0.119363 2.413926 3.174104 -1.392877 -2.141786 -5.690902 3.649886 5.710181 7.369590 -5.032797 -4.544330 0.000000 0.000000 0.000000 -21.265340 -9.866659 3.302919 -45.893504 -6.017637 -2.842166 -11.143857 -19.486028 2.587117 0.000000 0.000000 0.000000 0.000000 0.000000 0.000000 26.061601 6.998137 1.624072 44.346748 7.101296 -1.391764 15.079453 21.685395 3.268941 0.000000 0.000000 0.000000 0.000000 0.000000 0.000000 
0.872192 71.417923 1.759614 -1.230017 14.622747 2.518109 4.813195 -0.653987 -12.094476 -3.176542 0.254718 15.061696 2.642009 7.929171 7.867810 0.000000 0.000000 0.000000 -0.264615 0.762174 -7.733032 0.997555 0.199543 9.788236 -1.617214 -6.509119 6.562399 0.000000 0.000000 0.000000 0.414171 -0.194805 4.317799 3.188800 -1.342181 -3.078128 -5.031177 2.899774 6.180554 7.430230 -5.020542 -4.869381 0.000000 0.000000 0.000000 -20.913509 -9.913922 3.330374 -46.477560 -5.376631 -3.116093 -11.196737 -18.903354 2.515335 0.000000 0.000000 0.000000 0.000000 0.000000 0.000000 26.410253 7.359614 1.840900 43.775048 7.742071 -1.156867 14.870415 23.355330 3.515279 0.000000 0.000000 0.000000 0.000000 0.000000 0.000000 
1.708886 71.276115 1.155931 -1.405225 11.635526 2.813836 3.977848 -0.766279 -12.684015 -2.170254 -0.002626 15.719116 1.968783 6.532834 7.128573 0.000000 0.000000 0.000000 -0.777657 0.963448 -10.132548 0.866963 0.305471 12.234508 -0.344857 -3.721877 6.433447 0.000000 0.000000 0.000000 0.184965 -0.210270 4.930877 3.876775 -1.752799 -1.594484 -5.114089 3.217025 4.715038 8.056345 -5.592722 -4.248333 0.000000 0.000000 0.000000 -20.452806 -10.459192 3.636943 -47.131986 -4.965929 -3.315376 -11.373725 -18.358940 2.468262 0.000000 0.000000 0.000000 0.000000 0.000000 0.000000 26.555071 8.400173 2.497376 43.096646 8.407007 -0.919351 15.363862 24.479806 3.805973 0.000000 0.000000 0.000000 0.000000 0.000000 0.000000 
2.861860 71.127327 0.320955 -1.525027 8.515138 3.186506 3.292361 -0.886331 -13.505332 -1.134850 -0.273590 16.130064 1.524490 5.797505 7.327238 0.000000 0.000000 0.000000 -1.053971 1.171886 -12.615638 -1.295900 0.846935 13.634539 1.953207 1.127274 6.812897 0.000000 0.000000 0.000000 0.834259 -0.312995 6.373069 3.845120 -1.810192 -0.551195 -5.145734 2.918396 3.968079 8.232354 -5.563928 -5.104883 0.000000 0.000000 0.000000 -21.354669 -11.084063 3.999080 -47.195184 -5.942139 -2.949942 -10.004037 -18.263181 2.237595 0.000000 0.000000 0.000000 0.000000 0.000000 0.000000 25.892534 8.966912 2.864065 42.887154 8.853712 -0.766388 15.663776 25.635089 4.072673 0.000000 0.000000 0.000000 0.000000 0.000000 0.000000 
4.210875 70.854141 -0.693070 -1.646822 4.624695 4.091858 2.866056 -1.001037 -14.537135 -0.593075 -0.409519 16.047760 1.267685 4.987502 6.245098 0.000000 0.000000 0.000000 -2.185688 1.415744 -16.817176 -1.785791 1.112904 16.284495 2.894666 2.356840 8.393449 0.000000 0.000000 0.000000 1.616895 -0.521587 9.247589 3.697486 -1.720379 -0.840690 -4.890858 2.726402 4.375426 8.235278 -5.247660 -6.845975 0.000000 0.000000 0.000000 -22.068023 -12.497043 4.831299 -46.409079 -8.626227 -1.899857 -9.309692 -17.592063 2.046517 0.000000 0.000000 0.000000 0.000000 0.000000 0.000000 25.314197 10.021867 3.526173 42.700469 10.567331 -0.189077 13.088503 27.079456 3.752031 0.000000 0.000000 0.000000 0.000000 0.000000 0.000000 
5.723826 70.687134 -1.786637 -2.266550 -0.711814 4.646389 3.266455 -0.979223 -14.924185 -1.585986 -0.144885 15.494906 2.369067 6.946196 6.059055 0.000000 0.000000 0.000000 -2.783254 1.677453 -21.179625 -2.621743 1.503386 18.964729 4.078111 3.824951 10.297478 0.000000 0.000000 0.000000 1.496454 -0.618465 11.230541 3.784020 -1.889646 1.016952 -4.475261 2.395062 3.333527 9.298085 -5.962665 -7.032111 0.000000 0.000000 0.000000 -21.524274 -14.230158 5.819861 -46.894977 -10.932352 -1.037861 -7.155357 -17.756311 1.736214 0.000000 0.000000 0.000000 0.000000 0.000000 0.000000 24.825363 11.311215 4.322289 43.287192 12.644859 0.530825 10.006089 28.457752 3.237308 0.000000 0.000000 0.000000 0.000000 0.000000 0.000000 
